<svg width="136" height="50" viewBox="0 0 136 50" fill="none" xmlns="http://www.w3.org/2000/svg">
<rect width="136" height="50" fill="#FCA311"/>
<path d="M37.7745 35.112C38.0518 35.112 38.2758 35.208 38.4465 35.4C38.6385 35.592 38.7345 35.816 38.7345 36.072C38.7345 36.3493 38.6385 36.5733 38.4465 36.744C38.2758 36.9147 38.0518 37 37.7745 37H26.0305C25.7532 37 25.5185 36.9147 25.3265 36.744C25.1558 36.552 25.0705 36.3173 25.0705 36.04V15.56C25.0705 15.2827 25.1558 15.0587 25.3265 14.888C25.5185 14.696 25.7532 14.6 26.0305 14.6H37.7745C38.0518 14.6 38.2758 14.696 38.4465 14.888C38.6385 15.0587 38.7345 15.2827 38.7345 15.56C38.7345 15.8373 38.6385 16.0613 38.4465 16.232C38.2758 16.4027 38.0518 16.488 37.7745 16.488H27.0865V24.52H36.3345C36.6118 24.52 36.8358 24.616 37.0065 24.808C37.1985 24.9787 37.2945 25.2027 37.2945 25.48C37.2945 25.7573 37.1985 25.9813 37.0065 26.152C36.8358 26.3227 36.6118 26.408 36.3345 26.408H27.0865V35.112H37.7745ZM50.49 20.264C52.474 20.264 53.9247 20.8507 54.842 22.024C55.7807 23.176 56.25 24.712 56.25 26.632V36.04C56.25 36.3173 56.154 36.552 55.962 36.744C55.77 36.9147 55.546 37 55.29 37C55.0127 37 54.778 36.9147 54.586 36.744C54.4153 36.552 54.33 36.3173 54.33 36.04V26.728C54.33 25.3413 53.978 24.2213 53.274 23.368C52.5913 22.4933 51.5247 22.056 50.074 22.056C49.1567 22.056 48.282 22.2693 47.45 22.696C46.6393 23.1227 45.978 23.6987 45.466 24.424C44.954 25.128 44.698 25.896 44.698 26.728V36.04C44.698 36.3173 44.602 36.552 44.41 36.744C44.2393 36.9147 44.0153 37 43.738 37C43.4607 37 43.226 36.9147 43.034 36.744C42.8633 36.552 42.778 36.3173 42.778 36.04V21.704C42.778 21.4267 42.8633 21.2027 43.034 21.032C43.226 20.84 43.4607 20.744 43.738 20.744C44.0153 20.744 44.2393 20.84 44.41 21.032C44.602 21.2027 44.698 21.4267 44.698 21.704V23.464C45.274 22.5467 46.0953 21.7893 47.162 21.192C48.25 20.5733 49.3593 20.264 50.49 20.264ZM73.4738 20.328C73.6871 20.328 73.8898 20.4027 74.0818 20.552C74.2738 20.7013 74.3698 20.8933 74.3698 21.128C74.3698 21.32 74.3271 21.5013 74.2418 21.672L67.9698 36.392C67.8844 36.5627 67.7564 36.712 67.5858 36.84C67.4364 36.9467 67.2764 37 67.1058 37C66.8924 37.0213 66.7004 36.9787 66.5298 36.872C66.3591 36.7653 66.2311 36.6053 66.1458 36.392L59.8418 21.672C59.8418 21.6293 59.8204 21.5653 59.7778 21.48C59.7564 21.3947 59.7458 21.3093 59.7458 21.224C59.7458 20.968 59.8311 20.7547 60.0018 20.584C60.1724 20.392 60.4178 20.296 60.7378 20.296C60.9298 20.296 61.1004 20.36 61.2498 20.488C61.4204 20.5947 61.5484 20.744 61.6338 20.936L67.0738 33.896L72.5458 20.936C72.6311 20.744 72.7484 20.5947 72.8978 20.488C73.0684 20.36 73.2604 20.3067 73.4738 20.328ZM79.9153 36.04C79.9153 36.3173 79.8193 36.552 79.6273 36.744C79.4566 36.9147 79.2326 37 78.9553 37C78.6779 37 78.4433 36.9147 78.2513 36.744C78.0806 36.552 77.9953 36.3173 77.9953 36.04V21.32C77.9953 21.0427 78.0806 20.8187 78.2513 20.648C78.4433 20.456 78.6779 20.36 78.9553 20.36C79.2326 20.36 79.4566 20.456 79.6273 20.648C79.8193 20.8187 79.9153 21.0427 79.9153 21.32V36.04ZM78.9553 18.216C78.5286 18.216 78.1979 18.12 77.9633 17.928C77.7286 17.7147 77.6113 17.416 77.6113 17.032V16.712C77.6113 16.328 77.7286 16.04 77.9633 15.848C78.2193 15.6347 78.5606 15.528 78.9873 15.528C79.8406 15.528 80.2673 15.9227 80.2673 16.712V17.032C80.2673 17.416 80.1499 17.7147 79.9153 17.928C79.7019 18.12 79.3819 18.216 78.9553 18.216ZM98.183 20.648C98.4603 20.648 98.6843 20.744 98.855 20.936C99.047 21.128 99.143 21.3627 99.143 21.64V36.04C99.143 36.3173 99.047 36.552 98.855 36.744C98.6843 36.9147 98.4603 37 98.183 37C97.9057 37 97.671 36.9147 97.479 36.744C97.3083 36.552 97.223 36.3173 97.223 36.04V33.896C96.6897 34.856 95.8897 35.6667 94.823 36.328C93.7563 36.9893 92.5937 37.32 91.335 37.32C89.9057 37.32 88.615 36.9467 87.463 36.2C86.3323 35.4533 85.4363 34.4293 84.775 33.128C84.135 31.8267 83.815 30.3653 83.815 28.744C83.815 27.1227 84.1457 25.672 84.807 24.392C85.4683 23.0907 86.3643 22.0773 87.495 21.352C88.647 20.6267 89.9163 20.264 91.303 20.264C92.583 20.264 93.7563 20.5733 94.823 21.192C95.8897 21.8107 96.6897 22.6213 97.223 23.624V21.64C97.223 21.3627 97.3083 21.128 97.479 20.936C97.671 20.744 97.9057 20.648 98.183 20.648ZM91.527 35.528C92.6363 35.528 93.6283 35.24 94.503 34.664C95.399 34.0667 96.0923 33.256 96.583 32.232C97.095 31.1867 97.351 30.024 97.351 28.744C97.351 27.5067 97.095 26.376 96.583 25.352C96.0923 24.328 95.399 23.528 94.503 22.952C93.6283 22.3547 92.6363 22.056 91.527 22.056C90.4177 22.056 89.415 22.344 88.519 22.92C87.6443 23.496 86.951 24.296 86.439 25.32C85.9483 26.3227 85.703 27.464 85.703 28.744C85.703 30.024 85.9483 31.1867 86.439 32.232C86.9297 33.256 87.6123 34.0667 88.487 34.664C89.383 35.24 90.3963 35.528 91.527 35.528ZM111.801 20.264C112.228 20.264 112.612 20.3493 112.953 20.52C113.294 20.6907 113.465 20.9467 113.465 21.288C113.465 21.5867 113.38 21.832 113.209 22.024C113.038 22.1947 112.836 22.28 112.601 22.28C112.494 22.28 112.281 22.2267 111.961 22.12C111.662 22.0133 111.374 21.96 111.097 21.96C110.308 21.96 109.518 22.2693 108.729 22.888C107.961 23.4853 107.321 24.264 106.809 25.224C106.318 26.184 106.073 27.1547 106.073 28.136V36.04C106.073 36.3173 105.977 36.552 105.785 36.744C105.614 36.9147 105.39 37 105.113 37C104.836 37 104.601 36.9147 104.409 36.744C104.238 36.552 104.153 36.3173 104.153 36.04V21.704C104.153 21.4267 104.238 21.2027 104.409 21.032C104.601 20.84 104.836 20.744 105.113 20.744C105.39 20.744 105.614 20.84 105.785 21.032C105.977 21.2027 106.073 21.4267 106.073 21.704V24.52C106.564 23.304 107.3 22.3013 108.281 21.512C109.284 20.7013 110.457 20.2853 111.801 20.264Z" fill="black"/>
</svg>
