<svg width="224" height="49" viewBox="0 0 224 49" fill="none" xmlns="http://www.w3.org/2000/svg">
<path d="M0.303711 2H15.0037C20.037 2 23.787 2.73333 26.2537 4.2C28.7204 5.63333 29.9537 8.21666 29.9537 11.95C29.9537 16.0833 28.4537 18.9333 25.4537 20.5C22.6537 21.9333 18.737 22.65 13.7037 22.65H13.3037V36.05H19.5537V37H0.303711V36.05H3.55371V2.95H0.303711V2ZM13.3037 2.95V21.7H14.3537C16.3537 21.7 17.737 21.0167 18.5037 19.65C19.2704 18.2833 19.6537 16.0667 19.6537 13V10.6C19.6537 7.76667 19.287 5.78333 18.5537 4.65C17.8537 3.51666 16.5537 2.95 14.6537 2.95H13.3037ZM37.0932 9.75C35.3265 9.75 34.0598 9.3 33.2932 8.4C32.5598 7.5 32.1932 6.38333 32.1932 5.05C32.1932 3.71667 32.5932 2.61667 33.3932 1.75C34.2265 0.883332 35.4765 0.45 37.1432 0.45C38.8098 0.45 40.0765 0.85 40.9432 1.65C41.8098 2.41667 42.2432 3.53333 42.2432 5C42.2432 6.43333 41.8265 7.58333 40.9932 8.45C40.1598 9.31667 38.8598 9.75 37.0932 9.75ZM29.5432 13.2H41.7932V36.1H44.5932V37H29.7432V36.1H32.4932V14.1H29.5432V13.2ZM71.8857 37H60.4857L59.9357 33.35C59.4024 34.6833 58.6024 35.7167 57.5357 36.45C56.5024 37.15 54.9524 37.5 52.8857 37.5C47.7191 37.5 45.1357 34.7167 45.1357 29.15V14.1H42.3357V13.2H54.4357V30.35C54.4357 32.35 54.5691 33.6667 54.8357 34.3C55.1357 34.9333 55.7024 35.25 56.5357 35.25C57.4024 35.25 58.1691 34.7333 58.8357 33.7C59.5024 32.6667 59.8357 31.2333 59.8357 29.4V14.1H57.5357V13.2H69.1357V36.1H71.8857V37ZM89.1592 23.55C89.1592 20.1167 88.9925 17.8167 88.6592 16.65C88.3258 15.45 87.6758 14.85 86.7092 14.85C85.7425 14.85 84.8758 15.4833 84.1092 16.75C83.3425 17.9833 82.9592 19.65 82.9592 21.75V30.9C82.9592 32.3333 83.2425 33.55 83.8092 34.55C84.3758 35.55 85.2092 36.05 86.3092 36.05C87.4092 36.05 88.1592 35.3167 88.5592 33.85C88.9592 32.3833 89.1592 29.8167 89.1592 26.15V23.55ZM82.8592 13.2V17.15C84.1592 14.1833 86.4592 12.7 89.7592 12.7C92.6258 12.7 94.8425 13.7333 96.4092 15.8C98.0092 17.8667 98.8092 21 98.8092 25.2C98.8092 29.4 97.9425 32.5 96.2092 34.5C94.5092 36.5 91.9425 37.5 88.5092 37.5C86.9092 37.5 85.7092 37.3 84.9092 36.9C84.1092 36.5 83.4592 35.8833 82.9592 35.05V48H89.4092V48.9H70.9092V48H73.6592V14.1H71.0092V13.2H82.8592ZM105.654 9.75C103.887 9.75 102.62 9.3 101.854 8.4C101.12 7.5 100.754 6.38333 100.754 5.05C100.754 3.71667 101.154 2.61667 101.954 1.75C102.787 0.883332 104.037 0.45 105.704 0.45C107.37 0.45 108.637 0.85 109.504 1.65C110.37 2.41667 110.804 3.53333 110.804 5C110.804 6.43333 110.387 7.58333 109.554 8.45C108.72 9.31667 107.42 9.75 105.654 9.75ZM98.1037 13.2H110.354V36.1H113.154V37H98.3037V36.1H101.054V14.1H98.1037V13.2ZM140.446 37H129.046L128.496 33.35C127.963 34.6833 127.163 35.7167 126.096 36.45C125.063 37.15 123.513 37.5 121.446 37.5C116.28 37.5 113.696 34.7167 113.696 29.15V14.1H110.896V13.2H122.996V30.35C122.996 32.35 123.13 33.6667 123.396 34.3C123.696 34.9333 124.263 35.25 125.096 35.25C125.963 35.25 126.73 34.7333 127.396 33.7C128.063 32.6667 128.396 31.2333 128.396 29.4V14.1H126.096V13.2H137.696V36.1H140.446V37ZM154.568 14.1V13.2H167.468V14.1H165.418L169.918 30.95L174.368 14.1H170.918V13.2H177.668V14.1H175.568L169.568 37H162.718L158.368 21.65L153.668 37H146.968L139.568 14.1H137.318V13.2H152.468V14.1H149.468L154.068 31.1L157.668 19.4L156.418 14.1H154.568ZM188.559 37.5C184.259 37.5 181.026 36.4 178.859 34.2C176.726 31.9667 175.659 28.8833 175.659 24.95C175.659 20.9833 176.859 17.95 179.259 15.85C181.693 13.75 184.776 12.7 188.509 12.7C196.076 12.7 199.709 16.5 199.409 24.1H185.309V26.05C185.309 29.3167 185.726 31.7833 186.559 33.45C187.393 35.1167 188.843 35.95 190.909 35.95C194.776 35.95 197.309 33.8833 198.509 29.75L199.409 29.9C198.776 32.3 197.626 34.1667 195.959 35.5C194.326 36.8333 191.859 37.5 188.559 37.5ZM185.359 23.1H190.509V20.65C190.509 17.95 190.343 16.1167 190.009 15.15C189.709 14.15 189.076 13.65 188.109 13.65C187.176 13.65 186.476 14.1833 186.009 15.25C185.576 16.2833 185.359 18.0833 185.359 20.65V23.1ZM215.89 14.6C214.657 14.6 213.574 15.4 212.64 17C211.707 18.6 211.24 20.5 211.24 22.7V36.1H214.79V37H199.19V36.1H201.94V14.1H199.19V13.2H211.24V18C211.674 16.3 212.507 15 213.74 14.1C214.974 13.1667 216.374 12.7 217.94 12.7C219.507 12.7 220.774 13.15 221.74 14.05C222.74 14.9167 223.24 16.1667 223.24 17.8C223.24 19.4 222.874 20.6333 222.14 21.5C221.407 22.3667 220.274 22.8 218.74 22.8C217.24 22.8 216.124 22.3 215.39 21.3C214.69 20.3 214.607 18.9167 215.14 17.15H216.94C217.774 15.45 217.424 14.6 215.89 14.6Z" fill="#14213D"/>
<path d="M0.303711 2H15.0037C20.037 2 23.787 2.73333 26.2537 4.2C28.7204 5.63333 29.9537 8.21666 29.9537 11.95C29.9537 16.0833 28.4537 18.9333 25.4537 20.5C22.6537 21.9333 18.737 22.65 13.7037 22.65H13.3037V36.05H19.5537V37H0.303711V36.05H3.55371V2.95H0.303711V2ZM13.3037 2.95V21.7H14.3537C16.3537 21.7 17.737 21.0167 18.5037 19.65C19.2704 18.2833 19.6537 16.0667 19.6537 13V10.6C19.6537 7.76667 19.287 5.78333 18.5537 4.65C17.8537 3.51666 16.5537 2.95 14.6537 2.95H13.3037ZM37.0932 9.75C35.3265 9.75 34.0598 9.3 33.2932 8.4C32.5598 7.5 32.1932 6.38333 32.1932 5.05C32.1932 3.71667 32.5932 2.61667 33.3932 1.75C34.2265 0.883332 35.4765 0.45 37.1432 0.45C38.8098 0.45 40.0765 0.85 40.9432 1.65C41.8098 2.41667 42.2432 3.53333 42.2432 5C42.2432 6.43333 41.8265 7.58333 40.9932 8.45C40.1598 9.31667 38.8598 9.75 37.0932 9.75ZM29.5432 13.2H41.7932V36.1H44.5932V37H29.7432V36.1H32.4932V14.1H29.5432V13.2ZM71.8857 37H60.4857L59.9357 33.35C59.4024 34.6833 58.6024 35.7167 57.5357 36.45C56.5024 37.15 54.9524 37.5 52.8857 37.5C47.7191 37.5 45.1357 34.7167 45.1357 29.15V14.1H42.3357V13.2H54.4357V30.35C54.4357 32.35 54.5691 33.6667 54.8357 34.3C55.1357 34.9333 55.7024 35.25 56.5357 35.25C57.4024 35.25 58.1691 34.7333 58.8357 33.7C59.5024 32.6667 59.8357 31.2333 59.8357 29.4V14.1H57.5357V13.2H69.1357V36.1H71.8857V37ZM89.1592 23.55C89.1592 20.1167 88.9925 17.8167 88.6592 16.65C88.3258 15.45 87.6758 14.85 86.7092 14.85C85.7425 14.85 84.8758 15.4833 84.1092 16.75C83.3425 17.9833 82.9592 19.65 82.9592 21.75V30.9C82.9592 32.3333 83.2425 33.55 83.8092 34.55C84.3758 35.55 85.2092 36.05 86.3092 36.05C87.4092 36.05 88.1592 35.3167 88.5592 33.85C88.9592 32.3833 89.1592 29.8167 89.1592 26.15V23.55ZM82.8592 13.2V17.15C84.1592 14.1833 86.4592 12.7 89.7592 12.7C92.6258 12.7 94.8425 13.7333 96.4092 15.8C98.0092 17.8667 98.8092 21 98.8092 25.2C98.8092 29.4 97.9425 32.5 96.2092 34.5C94.5092 36.5 91.9425 37.5 88.5092 37.5C86.9092 37.5 85.7092 37.3 84.9092 36.9C84.1092 36.5 83.4592 35.8833 82.9592 35.05V48H89.4092V48.9H70.9092V48H73.6592V14.1H71.0092V13.2H82.8592ZM105.654 9.75C103.887 9.75 102.62 9.3 101.854 8.4C101.12 7.5 100.754 6.38333 100.754 5.05C100.754 3.71667 101.154 2.61667 101.954 1.75C102.787 0.883332 104.037 0.45 105.704 0.45C107.37 0.45 108.637 0.85 109.504 1.65C110.37 2.41667 110.804 3.53333 110.804 5C110.804 6.43333 110.387 7.58333 109.554 8.45C108.72 9.31667 107.42 9.75 105.654 9.75ZM98.1037 13.2H110.354V36.1H113.154V37H98.3037V36.1H101.054V14.1H98.1037V13.2ZM140.446 37H129.046L128.496 33.35C127.963 34.6833 127.163 35.7167 126.096 36.45C125.063 37.15 123.513 37.5 121.446 37.5C116.28 37.5 113.696 34.7167 113.696 29.15V14.1H110.896V13.2H122.996V30.35C122.996 32.35 123.13 33.6667 123.396 34.3C123.696 34.9333 124.263 35.25 125.096 35.25C125.963 35.25 126.73 34.7333 127.396 33.7C128.063 32.6667 128.396 31.2333 128.396 29.4V14.1H126.096V13.2H137.696V36.1H140.446V37ZM154.568 14.1V13.2H167.468V14.1H165.418L169.918 30.95L174.368 14.1H170.918V13.2H177.668V14.1H175.568L169.568 37H162.718L158.368 21.65L153.668 37H146.968L139.568 14.1H137.318V13.2H152.468V14.1H149.468L154.068 31.1L157.668 19.4L156.418 14.1H154.568ZM188.559 37.5C184.259 37.5 181.026 36.4 178.859 34.2C176.726 31.9667 175.659 28.8833 175.659 24.95C175.659 20.9833 176.859 17.95 179.259 15.85C181.693 13.75 184.776 12.7 188.509 12.7C196.076 12.7 199.709 16.5 199.409 24.1H185.309V26.05C185.309 29.3167 185.726 31.7833 186.559 33.45C187.393 35.1167 188.843 35.95 190.909 35.95C194.776 35.95 197.309 33.8833 198.509 29.75L199.409 29.9C198.776 32.3 197.626 34.1667 195.959 35.5C194.326 36.8333 191.859 37.5 188.559 37.5ZM185.359 23.1H190.509V20.65C190.509 17.95 190.343 16.1167 190.009 15.15C189.709 14.15 189.076 13.65 188.109 13.65C187.176 13.65 186.476 14.1833 186.009 15.25C185.576 16.2833 185.359 18.0833 185.359 20.65V23.1ZM215.89 14.6C214.657 14.6 213.574 15.4 212.64 17C211.707 18.6 211.24 20.5 211.24 22.7V36.1H214.79V37H199.19V36.1H201.94V14.1H199.19V13.2H211.24V18C211.674 16.3 212.507 15 213.74 14.1C214.974 13.1667 216.374 12.7 217.94 12.7C219.507 12.7 220.774 13.15 221.74 14.05C222.74 14.9167 223.24 16.1667 223.24 17.8C223.24 19.4 222.874 20.6333 222.14 21.5C221.407 22.3667 220.274 22.8 218.74 22.8C217.24 22.8 216.124 22.3 215.39 21.3C214.69 20.3 214.607 18.9167 215.14 17.15H216.94C217.774 15.45 217.424 14.6 215.89 14.6Z" fill="url(#paint0_linear)"/>
<defs>
<linearGradient id="paint0_linear" x1="111.5" y1="-16" x2="105.388" y2="83.8333" gradientUnits="userSpaceOnUse">
<stop stop-color="white"/>
<stop offset="0.369792" stop-color="#FB7F0E" stop-opacity="0.630208"/>
<stop offset="1" stop-color="white" stop-opacity="0"/>
</linearGradient>
</defs>
</svg>
